<svg width="500" height="500" viewBox="0 0 500 500" fill="none" xmlns="http://www.w3.org/2000/svg">
<path d="M249.627 72.388C286.568 72.388 316.792 44.776 321.268 8.95523C298.508 3.3582 274.628 0 249.627 0C225 0 200.747 3.3582 177.985 8.95523C182.463 44.776 212.687 72.388 249.627 72.388ZM9.32831 177.612C45.1492 182.09 72.7612 212.314 72.7612 249.254C72.7612 286.195 45.1492 316.419 9.32831 320.896C3.35815 298.135 0.373077 273.88 0.373077 249.254C0.373077 224.627 3.35815 200.373 9.32831 177.612ZM137.686 249.256C137.686 261.826 127.495 272.018 114.924 272.018C102.354 272.018 92.1633 261.826 92.1633 249.256C92.1633 236.685 102.354 226.495 114.924 226.495C127.495 226.495 137.686 236.685 137.686 249.256ZM427.612 249.254C427.612 286.195 455.224 316.419 491.044 320.896C497.016 298.135 500 273.88 500 249.254C500 224.627 497.016 200.373 491.044 177.612C455.224 182.09 427.612 212.314 427.612 249.254ZM408.206 249.256C408.206 261.826 398.016 272.018 385.445 272.018C372.875 272.018 362.685 261.826 362.685 249.256C362.685 236.685 372.875 226.495 385.445 226.495C398.016 226.495 408.206 236.685 408.206 249.256ZM249.627 427.24C212.687 427.24 182.463 454.852 177.985 490.672C200.747 496.643 225 499.628 249.627 499.628C274.255 499.628 298.508 496.643 321.268 490.672C316.792 454.852 286.568 427.24 249.627 427.24ZM272.391 385.445C272.391 398.016 262.201 408.206 249.629 408.206C237.058 408.206 226.868 398.016 226.868 385.445C226.868 372.875 237.058 362.685 249.629 362.685C262.201 362.685 272.391 372.875 272.391 385.445ZM272.391 114.551C272.391 127.122 262.201 137.313 249.629 137.313C237.058 137.313 226.868 127.122 226.868 114.551C226.868 101.981 237.058 91.7901 249.629 91.7901C262.201 91.7901 272.391 101.981 272.391 114.551ZM375.375 374.997C349.258 401.117 347.391 442.164 369.406 470.521C411.198 445.893 446.271 410.82 470.526 369.401C442.539 347.013 401.495 348.88 375.375 374.997ZM368.284 345.148C368.284 357.719 358.094 367.909 345.521 367.909C332.951 367.909 322.76 357.719 322.76 345.148C322.76 332.578 332.951 322.388 345.521 322.388C358.094 322.388 368.284 332.578 368.284 345.148ZM124.629 124.257C150.749 98.137 152.614 57.0922 130.599 28.7341C88.8083 53.3609 53.7339 88.4354 29.4799 129.853C57.4651 152.241 98.5099 150.003 124.629 124.257ZM176.863 153.729C176.863 166.3 166.673 176.49 154.102 176.49C141.532 176.49 131.341 166.3 131.341 153.729C131.341 141.158 141.532 130.968 154.102 130.968C166.673 130.968 176.863 141.158 176.863 153.729ZM375 123.883C401.12 150.003 442.164 151.868 470.521 129.853C445.896 88.0622 410.82 52.9878 369.404 28.7341C347.016 56.719 349.253 97.7638 375 123.883ZM368.284 153.729C368.284 166.3 358.094 176.49 345.521 176.49C332.951 176.49 322.76 166.3 322.76 153.729C322.76 141.158 332.951 130.968 345.521 130.968C358.094 130.968 368.284 141.158 368.284 153.729ZM124.257 374.63C98.137 348.51 57.0922 346.646 28.7341 368.659C53.3609 410.451 88.4357 445.526 129.853 470.154C152.241 441.794 150.376 400.75 124.257 374.63ZM176.863 345.148C176.863 357.719 166.673 367.909 154.102 367.909C141.532 367.909 131.341 357.719 131.341 345.148C131.341 332.578 141.532 322.388 154.102 322.388C166.673 322.388 176.863 332.578 176.863 345.148Z" fill="#E43D30"/>
</svg>