<svg width="500" height="500" viewBox="0 0 500 500" fill="none" xmlns="http://www.w3.org/2000/svg">
<path fill-rule="evenodd" clip-rule="evenodd" d="M500 0H0V500H500V0ZM86.2 390.8C86.2 403.6 78.3333 410 62.6 410C46.8667 410 39 403.6 39 390.8V114C39 107.867 40.7333 102.4 44.2 97.6C47.6667 92.5333 54.3333 90 64.2 90H200.2C209.8 90 214.867 96.6667 215.4 110C215.933 123.6 210.867 130.4 200.2 130.4H86.2V390.8ZM188.6 242.4C188.6 246.933 187.667 251.333 185.8 255.6C184.2 259.6 181.8 263.067 178.6 266C175.667 268.933 172.2 271.333 168.2 273.2C164.2 274.8 159.8 275.6 155 275.6C145.933 275.6 138.2 272.4 131.8 266C125.4 259.6 122.2 251.733 122.2 242.4C122.2 233.067 125.4 225.2 131.8 218.8C138.2 212.4 145.933 209.2 155 209.2C159.8 209.2 164.2 210.133 168.2 212C172.2 213.6 175.667 216 178.6 219.2C181.8 222.133 184.2 225.6 185.8 229.6C187.667 233.6 188.6 237.867 188.6 242.4ZM280.394 332.503C276.468 330.237 274.217 326.936 273.641 322.6C273.429 318.167 274.857 313.294 277.924 307.983C284.724 296.205 292.973 293.116 302.673 298.716L339.392 319.916C347.937 324.849 355.341 325.891 361.606 323.041C368.101 320.325 373.015 316.08 376.348 310.306L409.148 253.495C412.481 247.722 413.701 241.343 412.806 234.36C412.141 227.511 407.537 221.619 398.992 216.686L326.246 174.686L195.646 400.892C189.246 411.977 179.118 413.519 165.261 405.519C151.867 397.786 148.37 388.377 154.77 377.292L293.57 136.883C298.37 128.569 303.648 124.227 309.405 123.855C315.162 123.484 321.043 125.032 327.047 128.498L428.199 186.898C433.972 190.232 439.359 195.035 444.359 201.309C449.358 207.583 453.727 214.416 457.465 221.808L457.118 221.608C460.59 229.463 461.875 237.903 460.975 246.929C460.208 255.724 457.158 264.74 451.825 273.978L415.625 336.678C404.825 355.384 390.522 365.756 372.718 367.793C364.181 368.715 356.127 368.53 348.559 367.239C340.99 365.949 334.203 363.57 328.199 360.103L280.394 332.503Z" fill="#7575A2"/>
</svg>
