<svg width="499" height="500" viewBox="0 0 499 500" fill="none" xmlns="http://www.w3.org/2000/svg">
<path d="M249.033 0C111.514 0 0 114.612 0 255.996C0 369.104 71.3555 465.062 170.305 498.912C182.75 501.281 187.32 493.359 187.32 486.597C187.32 480.493 187.088 460.325 186.982 438.935C117.699 454.421 103.08 408.731 103.08 408.731C91.752 379.141 75.4297 371.274 75.4297 371.274C52.8359 355.385 77.1328 355.71 77.1328 355.71C102.141 357.517 115.309 382.092 115.309 382.092C137.52 421.229 173.566 409.913 187.777 403.374C190.012 386.826 196.467 375.535 203.588 369.142C148.275 362.667 90.127 340.717 90.127 242.627C90.127 214.679 99.8555 191.841 115.787 173.914C113.201 167.465 104.678 141.429 118.199 106.167C118.199 106.167 139.111 99.2865 186.701 132.408C206.564 126.734 227.869 123.891 249.033 123.795C270.197 123.891 291.518 126.734 311.42 132.408C358.953 99.2865 379.836 106.167 379.836 106.167C393.391 141.429 384.863 167.465 382.277 173.914C398.244 191.841 407.906 214.677 407.906 242.627C407.906 340.95 349.648 362.601 294.195 368.937C303.127 376.882 311.086 392.462 311.086 416.344C311.086 450.596 310.797 478.164 310.797 486.597C310.797 493.409 315.279 501.392 327.904 498.878C426.799 464.989 498.064 369.066 498.064 255.996C498.064 114.612 386.566 0 249.033 0Z" fill="#fff"/>
<path d="M93.2715 364.673C92.7246 365.944 90.7754 366.325 89.0039 365.454C87.1973 364.619 86.1816 362.884 86.7676 361.607C87.3047 360.298 89.2539 359.933 91.0566 360.812C92.8672 361.645 93.8984 363.396 93.2715 364.673ZM105.521 375.908C104.334 377.041 102.012 376.515 100.436 374.726C98.8066 372.941 98.5019 370.556 99.707 369.405C100.932 368.275 103.184 368.803 104.816 370.59C106.445 372.395 106.762 374.766 105.52 375.91M113.926 390.284C112.398 391.374 109.902 390.352 108.361 388.075C106.836 385.8 106.836 383.07 108.395 381.976C109.941 380.881 112.398 381.865 113.961 384.124C115.484 386.439 115.484 389.169 113.924 390.286M128.137 406.934C126.771 408.48 123.865 408.066 121.736 405.954C119.561 403.89 118.953 400.961 120.322 399.413C121.703 397.863 124.627 398.299 126.771 400.393C128.934 402.453 129.592 405.404 128.137 406.934ZM146.504 412.556C145.904 414.559 143.104 415.471 140.283 414.619C137.467 413.742 135.623 411.393 136.191 409.367C136.777 407.349 139.59 406.4 142.432 407.311C145.244 408.185 147.09 410.516 146.504 412.556ZM167.41 414.939C167.48 417.051 165.088 418.802 162.127 418.84C159.148 418.906 156.74 417.197 156.709 415.121C156.709 412.989 159.047 411.254 162.023 411.204C164.984 411.144 167.41 412.841 167.41 414.939ZM187.945 414.13C188.301 416.19 186.242 418.306 183.303 418.868C180.412 419.41 177.736 418.139 177.367 416.097C177.008 413.985 179.105 411.871 181.99 411.323C184.936 410.797 187.57 412.035 187.945 414.13Z" fill="#fff"/>
</svg>
