<svg width="500" height="500" viewBox="0 0 500 500" fill="none" xmlns="http://www.w3.org/2000/svg">
<path d="M35.3125 250C35.3125 335.156 84.2187 408.516 155.625 442.937L54.3437 163.047C42.5781 190.219 35.3125 219.219 35.3125 250ZM394.922 239.125C394.922 212.875 384.953 193.813 376.797 180.25C365.922 162.125 355.969 147.641 355.969 129.531C355.969 109.609 371.375 91.4844 392.219 91.4844H394.937C356.875 56.1563 306.156 35.3125 250 35.3125C214.471 35.6271 179.557 44.6223 148.299 61.5149C117.041 78.4075 90.3864 102.685 70.6562 132.234H84.25C106.906 132.234 141.312 129.516 141.312 129.516C153.094 128.609 154 145.813 143.125 147.641C143.125 147.641 131.344 149.453 118.672 149.453L196.578 381.328L243.672 240.922L210.156 149.438L187.5 147.656C175.719 146.75 177.531 129.531 188.406 129.531C188.406 129.531 223.719 132.25 244.563 132.25C267.219 132.25 301.625 129.531 301.625 129.531C313.406 128.625 314.313 145.828 303.438 147.656C303.438 147.656 291.656 149.469 278.984 149.469L356.875 380.469L378.75 308.906C387.812 279.016 395.047 258.187 395.047 239.156L394.922 239.125ZM253.625 269.016L189.313 455.625C208.328 461.062 229.156 464.687 250 464.687C275.359 464.687 298.906 460 321.562 452.906C320.656 452 320.656 451.094 319.75 450.188L253.625 269.016ZM438.406 147.656L440.219 169.531C440.219 191.406 436.594 215.734 423.922 246.531L358.703 435.844C422.109 398.703 465.578 329.859 465.578 250.156C464.672 213.016 454.703 178.594 438.391 147.813L438.406 147.656ZM250 0C112.312 0 0 112.312 0 250C0 387.688 112.312 500 250 500C387.688 500 500 387.688 500 250C500 112.312 387.688 0 250 0ZM250 489.125C118.656 489.125 11.7813 382.25 11.7813 250C11.8804 186.851 37.0102 126.317 81.6634 81.6634C126.317 37.0102 186.851 11.8804 250 11.7813C313.149 11.8804 373.683 37.0102 418.337 81.6634C462.99 126.317 488.12 186.851 488.219 250C488.219 382.25 381.344 489.125 250 489.125Z" fill="#3858E9"/>
</svg>
